<?xml version="1.0" encoding="UTF-8" standalone="no"?>
<!-- Created with Inkscape (http://www.inkscape.org/) -->

<svg
   width="210mm"
   height="297mm"
   viewBox="0 0 210 297"
   version="1.1"
   id="svg5"
   inkscape:version="1.1.2 (0a00cf5339, 2022-02-04)"
   sodipodi:docname="drawing.svg"
   xmlns:inkscape="http://www.inkscape.org/namespaces/inkscape"
   xmlns:sodipodi="http://sodipodi.sourceforge.net/DTD/sodipodi-0.dtd"
   xmlns="http://www.w3.org/2000/svg"
   xmlns:svg="http://www.w3.org/2000/svg">
  <sodipodi:namedview
     id="namedview7"
     pagecolor="#ffffff"
     bordercolor="#666666"
     borderopacity="1.0"
     inkscape:pageshadow="2"
     inkscape:pageopacity="0.0"
     inkscape:pagecheckerboard="0"
     inkscape:document-units="mm"
     showgrid="false"
     inkscape:zoom="0.94786756"
     inkscape:cx="529.08235"
     inkscape:cy="585.52484"
     inkscape:window-width="1920"
     inkscape:window-height="1043"
     inkscape:window-x="0"
     inkscape:window-y="0"
     inkscape:window-maximized="1"
     inkscape:current-layer="layer1" />
  <defs
     id="defs2">
    <inkscape:path-effect
       effect="bspline"
       id="path-effect159"
       is_visible="true"
       lpeversion="1"
       weight="33.333333"
       steps="2"
       helper_size="0"
       apply_no_weight="true"
       apply_with_weight="true"
       only_selected="false" />
  </defs>
  <g
     inkscape:label="Layer 1"
     inkscape:groupmode="layer"
     id="layer1">
    <path
       style="fill:#0000ff;stroke:#000000;stroke-width:0.264583px;stroke-linecap:butt;stroke-linejoin:miter;stroke-opacity:1"
       d="m -3.110611,197.49091 c 1.0915372,0.47001 2.17988338,0.93865 5.0994894,1.28227 2.9196061,0.34361 7.6709035,0.56346 10.6150316,0.29671 2.944129,-0.26674 4.083227,-1.01954 4.842531,-1.73101 0.759305,-0.71146 1.139931,-1.38287 1.762002,-2.20638 0.62207,-0.82351 1.485243,-1.79844 2.87463,-3.44707 1.389386,-1.64863 3.305058,-3.97107 5.177294,-6.09569 1.872237,-2.12463 3.700879,-4.05122 5.241573,-5.68847 1.540695,-1.63725 2.793469,-2.98517 3.566001,-3.85697 0.772532,-0.87181 1.06506,-1.26785 2.22422,-1.98409 1.15916,-0.71624 3.183601,-1.75172 5.372038,-2.36506 2.188437,-0.61333 4.53948,-0.80485 5.94796,-0.75919 1.40848,0.0457 1.873704,0.32644 2.532544,0.70188 0.658841,0.37544 1.511258,0.8457 3.378209,2.71366 1.86695,1.86796 4.749109,5.13256 6.330461,6.95186 1.581352,1.81931 1.862139,2.19314 2.048332,2.56622 0.186193,0.37308 0.27924,0.74527 0.610659,1.36929 0.331419,0.62402 0.899992,1.49993 1.7783,2.97217 0.878307,1.47224 2.066533,3.54074 3.184533,5.43926 1.117999,1.89853 2.165682,3.6271 5.995974,5.78952 3.830292,2.16241 10.441884,4.76052 14.119586,6.05895 3.677703,1.29843 4.422066,1.29843 6.011489,1.20108 1.589422,-0.0974 4.024131,-0.29186 5.706354,-0.52884 1.68222,-0.23697 2.61267,-0.51611 3.17631,-0.75027 0.56364,-0.23416 0.76211,-0.4238 1.239,-0.70584 0.47689,-0.28203 1.2312,-0.656 1.65408,-0.93523 0.42288,-0.27924 0.51592,-0.46533 0.70394,-0.60657 0.18803,-0.14125 0.46891,-0.23605 1.45894,-1.08765 0.99003,-0.85161 2.6907,-2.46048 4.15275,-3.9714 1.46205,-1.51092 2.68573,-2.92417 3.48734,-3.91874 0.8016,-0.99456 1.18137,-1.57087 1.70254,-2.19672 0.52117,-0.62586 1.18334,-1.30066 1.65562,-1.82572 0.47227,-0.52505 0.75493,-0.90076 1.08567,-1.18297 0.33074,-0.28221 0.70818,-0.46998 1.03679,-0.70403 0.32861,-0.23404 0.60945,-0.51488 1.49847,-0.84241 0.88901,-0.32754 2.38433,-0.70131 5.35118,-0.3669 2.96685,0.33441 7.404,1.37582 10.01142,2.08557 2.60742,0.70974 3.38503,1.08701 4.20618,1.36915 0.82114,0.28214 1.68591,0.47002 2.75537,0.80636 1.06946,0.33633 2.34347,0.82057 3.80937,1.25876 1.4659,0.43819 3.12378,0.8308 4.625,1.21942 1.50121,0.38861 2.8457,0.77307 5.01314,1.1521 2.16743,0.37904 5.15803,0.7532 8.00233,0.94009 2.84431,0.1869 5.54262,0.1869 8.05483,0.1869 2.51222,0 4.83835,0 7.72625,-0.13967 2.88789,-0.13966 6.33778,-0.4188 8.52807,-0.55827 2.19029,-0.13947 3.12074,-0.13947 5.45112,0.32556 2.33038,0.46502 6.06021,1.3943 8.20403,1.85855 2.14382,0.46425 2.70209,0.46425 3.21582,0.55965 0.51373,0.0954 0.98238,0.28491 1.4014,0.37902 0.41903,0.0941 0.78898,0.0941 1.01893,0.14086 0.22995,0.0468 0.31986,0.13755 0.40716,0.22572"
       id="path157"
       inkscape:path-effect="#path-effect159"
       inkscape:original-d="m -3.110611,197.49091 c 1.0909909,0.47128 2.17933583,0.93992 3.26503499,1.40591 4.75394361,0.2225 9.50524141,0.44234 14.25389301,0.65954 1.141745,-0.75015 2.280843,-1.50295 3.417295,-2.2584 0.383272,-0.66876 0.763897,-1.34017 1.141876,-2.01422 0.86582,-0.97228 1.728995,-1.9472 2.589524,-2.92477 1.918319,-2.3198 3.833993,-4.64224 5.747019,-6.96733 1.831287,-1.92395 3.659926,-3.85055 5.485921,-5.77979 1.255422,-1.34528 2.508197,-2.6932 3.758324,-4.04377 0.295175,-0.39339 0.587701,-0.78943 0.877581,-1.18811 2.027087,-1.03283 4.051528,-2.06831 6.073323,-3.10644 2.353688,-0.18887 4.70473,-0.38039 7.053124,-0.57455 0.467874,0.28341 0.933098,0.56418 1.395677,0.84231 0.855062,0.4729 1.707478,0.94316 2.557249,1.41077 2.884805,3.26725 5.766966,6.53185 8.646482,9.79381 0.283433,0.37648 0.564222,0.75031 0.842365,1.1215 0.09569,0.37482 0.188735,0.74701 0.279133,1.11654 0.571224,0.87856 1.139803,1.75446 1.705734,2.62773 1.190874,2.07115 2.379101,4.13965 3.564683,6.20551 1.05033,1.73122 2.098014,3.45979 3.143049,5.18571 6.61424,2.60076 13.225833,5.19887 19.834778,7.79434 0.747006,0.003 1.491369,0.003 2.233083,0 2.437358,-0.19186 4.872067,-0.38636 7.304133,-0.58352 0.9331,-0.27649 1.86355,-0.55562 2.79135,-0.8374 0.20111,-0.187 0.39958,-0.37664 0.5954,-0.56892 0.75695,-0.37132 1.51126,-0.74528 2.26293,-1.12189 0.0957,-0.18345 0.18873,-0.36954 0.27913,-0.55828 0.28354,-0.0922 0.56443,-0.18696 0.84267,-0.28441 1.70332,-1.60622 3.40399,-3.21509 5.10201,-4.8266 1.22633,-1.41061 2.45001,-2.82386 3.67105,-4.23976 0.38241,-0.57366 0.76218,-1.14996 1.1393,-1.72891 0.66483,-0.67216 1.327,-1.34696 1.98654,-2.02441 0.2853,-0.37306 0.56796,-0.74876 0.84797,-1.1271 0.38009,-0.18514 0.75753,-0.37291 1.13233,-0.56333 0.28349,-0.27819 0.56433,-0.55903 0.84252,-0.84251 1.49797,-0.37112 2.99329,-0.7449 4.48596,-1.12132 4.4398,1.04405 8.87695,2.08546 13.31145,3.12422 0.78026,0.37991 1.55787,0.75718 2.33284,1.13181 0.86742,0.19053 1.73219,0.37841 2.59432,0.56365 1.27667,0.48689 2.55069,0.97112 3.82206,1.45272 1.66052,0.39526 3.3184,0.78787 4.97363,1.17784 1.34715,0.3871 2.69164,0.77155 4.03349,1.15336 2.99324,0.3768 5.98383,0.75096 8.97178,1.12247 2.70095,0.003 5.39926,0.003 8.09492,0 2.32877,0.003 4.6549,0.003 6.97838,0 3.45254,-0.27649 6.90243,-0.55563 10.34968,-0.83741 0.9331,0.003 1.86355,0.003 2.79136,0 3.73248,0.93192 7.46231,1.8612 11.1895,2.78783 0.56092,0.003 1.11919,0.003 1.67481,0 0.47129,0.19215 0.93994,0.38166 1.40594,0.56853 0.3726,0.003 0.74255,0.003 1.10986,0 0.0926,0.0935 0.18251,0.18429 0.2698,0.27247" />
  </g>
</svg>
